<svg xmlns="http://www.w3.org/2000/svg">
	
	<symbol id="facebook" viewBox="0 0 41.0346 79.0265">
		<path d="M41.0315.5684V13.1067H33.5754c-5.8421,0-6.9333,2.8026-6.9333,6.8391v8.976H40.5574L38.7062,42.98H26.6421V79.0265H12.11V42.98H0V28.9218H12.11V18.5689C12.11,6.5534,19.4717,0,30.2045,0a93.6127,93.6127,0,0,1,10.83.5684Z"/>
	</symbol>

	<symbol id="line" viewBox="0 0 82.9797 79.0265">
		<path d="M66.9543,32.1235a2.18,2.18,0,0,1,0,4.3591H60.8864v3.89h6.0679a2.177,2.177,0,1,1,0,4.3539H58.7056a2.1819,2.1819,0,0,1-2.1679-2.1756V26.0556a2.1846,2.1846,0,0,1,2.1782-2.1782h8.2487a2.1783,2.1783,0,0,1-.01,4.3565H60.8864v3.89ZM53.6257,42.5505A2.1779,2.1779,0,0,1,52.132,44.612a2.2235,2.2235,0,0,1-.6872.1063,2.1418,2.1418,0,0,1-1.7633-.8635L41.2357,32.3854V42.5505a2.173,2.173,0,1,1-4.346,0V26.0556a2.1662,2.1662,0,0,1,1.4858-2.0563,1.9877,1.9877,0,0,1,.6717-.1141,2.2366,2.2366,0,0,1,1.7114.8791l8.5132,11.5134v-10.22a2.1782,2.1782,0,1,1,4.3564,0V42.553Zm-19.85,0a2.1743,2.1743,0,1,1-4.3486,0V26.0556a2.1743,2.1743,0,1,1,4.3486,0Zm-8.5261,2.1756H17.0005a2.1908,2.1908,0,0,1-2.1782-2.1756V26.0556a2.1782,2.1782,0,0,1,4.3564,0V40.3722h6.07a2.177,2.177,0,0,1,0,4.3539ZM82.98,33.682C82.98,15.1127,64.3612,0,41.49,0S0,15.1127,0,33.682c0,16.6348,14.7626,30.57,34.6959,33.22,1.351.2827,3.1921.892,3.6589,2.0408a8.4694,8.4694,0,0,1,.1322,3.7341l-.5679,3.5266c-.1555,1.04-.83,4.1,3.6278,2.23C46.01,76.57,65.458,64.3352,74.1709,54.318,80.1325,47.786,82.98,41.0957,82.98,33.6846Z"/>
	</symbol>
	
	<symbol id="twitter" viewBox="0 0 97.2328 79.0265">
		<path d="M97.0444,9.4131a40.4463,40.4463,0,0,1-11.4458,3.1387A20.0924,20.0924,0,0,0,94.3615,1.5192,41.1676,41.1676,0,0,1,81.6942,6.3169a19.9255,19.9255,0,0,0-34.48,13.603,20.4777,20.4777,0,0,0,.5134,4.5546A56.4427,56.4427,0,0,1,6.645,3.7069,19.5451,19.5451,0,0,0,3.9469,13.7337,19.9339,19.9339,0,0,0,12.81,30.3266,19.9152,19.9152,0,0,1,3.7828,27.832v.2461A19.9434,19.9434,0,0,0,19.768,47.6335a20.25,20.25,0,0,1-5.25.6927,19.9908,19.9908,0,0,1-3.71-.3494A19.9974,19.9974,0,0,0,29.4606,61.82,39.9746,39.9746,0,0,1,4.74,70.3488a42.7614,42.7614,0,0,1-4.74-.27,56.6888,56.6888,0,0,0,30.6152,8.9482c36.68,0,56.7123-30.3691,56.7123-56.6606,0-.8477,0-1.7015-.0608-2.5523A40.2963,40.2963,0,0,0,97.2328,9.4921L97.0414,9.41Z"/>
	</symbol>
	
</svg>